# xmcd
#
# Track frame offsets: 
#        150
#        17297
#        31786
#        66254
#        139166
#        149995
#        188712
#        202747
#        227778
#        246108
#        261705
#        295837
#        328047
#
# Disc length: 4712 seconds
#
# Revision: 0
# Processed by: cddbd v1.5.2PL0 Copyright (c) Steve Scherf et al.
# Submitted via: ExactAudioCopyFreeDBPlugin 1.0
#
DISCID=c412660d
DTITLE=Erma Franklin - The Electric Flag featuring Erma Franklin:  Liv
DTITLE=e 1968 at the Carosel Ballroom
DYEAR=2015
DGENRE=Rhythm and Blues
TTITLE0=Uptight (Everything's Alright)
TTITLE1=Day Tripper
TTITLE2=Driving Wheel
TTITLE3=The Theme
TTITLE4=Goin' Down Slow
TTITLE5=Instrumental Jam
TTITLE6=Big Boss Man
TTITLE7=Dr. Feelgood (Love is a Serious Business)
TTITLE8=Medley:  I Heard it Through the Grapevine - Have a Little Merc
TTITLE8=y - Tell Mama - Chain of Fools
TTITLE9=Piece of My Heart
TTITLE10=Hold on, I'm Comin'
TTITLE11=Everyday I Have the Blues
TTITLE12=Killing Floor
EXTD=
EXTT0=
EXTT1=
EXTT2=
EXTT3=
EXTT4=
EXTT5=
EXTT6=
EXTT7=
EXTT8=
EXTT9=
EXTT10=
EXTT11=
EXTT12=
PLAYORDER=
